<?xml version='1.0' encoding='UTF-8' standalone='no'?>
<!-- Created with Fritzing (http://www.fritzing.org/) -->
<svg xmlns="http://www.w3.org/2000/svg" version="1.2" y="0in" viewBox="0 0 141.732 141.732" height="1.9685in"  baseProfile="tiny" x="0in" xmlns:svg="http://www.w3.org/2000/svg" width="1.9685in">
 <g transform="matrix(-1, 0, 0, 1, 141.732, 0)">
  <g partID="57520">
   <g id="board" >
    <rect fill="none" id="boardoutline" fill-opacity="0.5" y="0.288" stroke="black" stroke-width="0.5" height="141.156"  x="0.288" width="141.156"/>
   </g>
  </g>
  <g partID="58101">
   <g transform="translate(7.32938,9.31899)">
    <g id="copper1" >
     <g id="copper0" >
      <circle fill="none" id="connector16pad" stroke="black" stroke-width="1.224"  cx="3.6" cy="10.8" r="1.908"/>
      <rect fill="none" y="8.892" stroke="black" stroke-width="1.224" height="3.816"  x="1.692" width="3.814"/>
      <circle fill="none" id="connector17pad" stroke="black" stroke-width="1.224"  cx="3.6" cy="18" r="1.908"/>
      <circle fill="none" id="connector18pad" stroke="black" stroke-width="1.224"  cx="3.6" cy="25.2" r="1.908"/>
      <circle fill="none" id="connector19pad" stroke="black" stroke-width="1.224"  cx="3.6" cy="32.4" r="1.908"/>
      <circle fill="none" id="connector20pad" stroke="black" stroke-width="1.224"  cx="3.6" cy="39.6" r="1.908"/>
      <circle fill="none" id="connector21pad" stroke="black" stroke-width="1.224"  cx="3.6" cy="46.8" r="1.908"/>
      <circle fill="none" id="connector22pad" stroke="black" stroke-width="1.224"  cx="3.6" cy="54" r="1.908"/>
      <circle fill="none" id="connector23pad" stroke="black" stroke-width="1.224"  cx="3.6" cy="61.2" r="1.908"/>
      <circle fill="none" id="connector24pad" stroke="black" stroke-width="1.224"  cx="3.6" cy="68.4" r="1.908"/>
      <circle fill="none" id="connector25pad" stroke="black" stroke-width="1.224"  cx="3.6" cy="75.6" r="1.908"/>
      <circle fill="none" id="connector26pad" stroke="black" stroke-width="1.224"  cx="3.6" cy="82.8" r="1.908"/>
      <circle fill="none" id="connector27pad" stroke="black" stroke-width="1.224"  cx="3.6" cy="90" r="1.908"/>
      <circle fill="none" id="connector28pad" stroke="black" stroke-width="1.224"  cx="3.6" cy="97.2" r="1.908"/>
      <circle fill="none" id="connector29pad" stroke="black" stroke-width="1.224"  cx="3.6" cy="104.4" r="1.908"/>
      <circle fill="none" id="connector30pad" stroke="black" stroke-width="1.224"  cx="3.6" cy="111.6" r="1.908"/>
      <circle fill="none" id="connector31pad" stroke="black" stroke-width="1.224"  cx="46.8" cy="10.8" r="1.908"/>
      <circle fill="none" id="connector32pad" stroke="black" stroke-width="1.224"  cx="46.8" cy="18" r="1.908"/>
      <circle fill="none" id="connector33pad" stroke="black" stroke-width="1.224"  cx="46.8" cy="25.2" r="1.908"/>
      <circle fill="none" id="connector34pad" stroke="black" stroke-width="1.224"  cx="46.8" cy="32.4" r="1.908"/>
      <circle fill="none" id="connector35pad" stroke="black" stroke-width="1.224"  cx="46.8" cy="39.6" r="1.908"/>
      <circle fill="none" id="connector36pad" stroke="black" stroke-width="1.224"  cx="46.8" cy="46.8" r="1.908"/>
      <circle fill="none" id="connector37pad" stroke="black" stroke-width="1.224"  cx="46.8" cy="54" r="1.908"/>
      <circle fill="none" id="connector38pad" stroke="black" stroke-width="1.224"  cx="46.8" cy="61.2" r="1.908"/>
      <circle fill="none" id="connector39pad" stroke="black" stroke-width="1.224"  cx="46.8" cy="68.4" r="1.908"/>
      <circle fill="none" id="connector40pad" stroke="black" stroke-width="1.224"  cx="46.8" cy="75.6" r="1.908"/>
      <circle fill="none" id="connector41pad" stroke="black" stroke-width="1.224"  cx="46.8" cy="82.8" r="1.908"/>
      <circle fill="none" id="connector42pad" stroke="black" stroke-width="1.224"  cx="46.8" cy="90" r="1.908"/>
      <circle fill="none" id="connector43pad" stroke="black" stroke-width="1.224"  cx="46.8" cy="97.2" r="1.908"/>
      <circle fill="none" id="connector44pad" stroke="black" stroke-width="1.224"  cx="46.8" cy="104.4" r="1.908"/>
      <circle fill="none" id="connector45pad" stroke="black" stroke-width="1.224"  cx="46.8" cy="111.6" r="1.908"/>
     </g>
    </g>
   </g>
  </g>
  <g partID="58121">
   <g transform="translate(62.7004,9.38497)">
    <g id="copper1" >
     <circle fill="none" id="connector11pad" stroke="black" stroke-width="0.999999"  cx="13.029" cy="32.333" r="2.16"/>
     <circle fill="none" id="connector10pad" stroke="black" stroke-width="0.999999"  cx="13.029" cy="25.134" r="2.16"/>
     <circle fill="none" id="connector9pad" stroke="black" stroke-width="0.999999"  cx="13.029" cy="17.934" r="2.16"/>
     <circle fill="none" id="connector8pad" stroke="black" stroke-width="0.999999"  cx="13.029" cy="10.734" r="2.16"/>
    </g>
   </g>
  </g>
  <g partID="854630741">
   <g transform="translate(122.529,56.839)">
    <g transform="matrix(0,1,-1,0,0,0)">
     <g id="copper1"  gorn="0.2">
      <g id="copper0"  gorn="0.2.0">
       <circle fill="none" id="connector15pad" stroke="black" stroke-width="1.44"  cx="14.4" gorn="0.2.0.0" cy="9" r="4.26331" connectorname="P$1"/>
       <circle fill="none" id="connector6pad" stroke="black" stroke-width="1.44"  cx="20.88" gorn="0.2.0.1" cy="46.8" r="2.16" connectorname="5.0V"/>
       <circle fill="none" id="connector7pad" stroke="black" stroke-width="1.44"  cx="13.68" gorn="0.2.0.2" cy="46.8" r="2.16" connectorname="AOUT"/>
       <circle fill="none" id="connector8pad" stroke="black" stroke-width="1.44"  cx="6.48" gorn="0.2.0.3" cy="46.8" r="2.16" connectorname="GND"/>
      </g>
     </g>
    </g>
   </g>
  </g>
  <g partID="854636611">
   <g transform="translate(129.845,135.32)">
    <g transform="matrix(-1,0,0,-1,0,0)">
     <g transform="matrix(1, 0, 0, 1, 42.413, 0.978001)">
      <g id="copper1">
       <g gorn="0.1.0.0.0.2">
        <g id="copper0" gorn="0.1.0.0.0.2.0">
         <circle fill="none" id="connector8pad" stroke="black" stroke-width="1.224" cx="18.903" gorn="0.1.0.0.0.2.0.0" cy="6.222" r="2.052"/>
         <circle fill="none" id="connector9pad" stroke="black" stroke-width="1.224" cx="18.903" gorn="0.1.0.0.0.2.0.1" cy="13.423" r="2.052"/>
         <circle fill="none" id="connector10pad" stroke="black" stroke-width="1.224" cx="18.903" gorn="0.1.0.0.0.2.0.2" cy="20.622" r="2.052"/>
         <circle fill="none" id="connector12pad" stroke="black" stroke-width="1.224" cx="18.903" gorn="0.1.0.0.0.2.0.3" cy="27.823" r="2.052"/>
         <circle fill="none" id="connector13pad" stroke="black" stroke-width="1.224" cx="18.903" gorn="0.1.0.0.0.2.0.4" cy="35.022" r="2.052"/>
        </g>
       </g>
      </g>
     </g>
    </g>
   </g>
  </g>
  <g partID="854645031">
   <g transform="translate(114.909,11.327)">
    <g transform="matrix(0,1,-1,0,0,0)">
     <g id="copper1" >
      <circle fill="none" id="connector0pad" stroke="black" stroke-width="0.72"  cx="8.79194" cy="17.5794" connectorname="1" r="1.35213"/>
      <circle fill="none" id="connector1pad" stroke="black" stroke-width="0.72"  cx="14.4612" cy="17.5794" connectorname="2" r="1.35213"/>
      <circle fill="none" id="connector2pad" stroke="black" stroke-width="0.72"  cx="20.1305" cy="17.5794" connectorname="3" r="1.35213"/>
      <circle fill="none" id="connector3pad" stroke="black" stroke-width="0.72"  cx="25.7998" cy="17.5794" connectorname="4" r="1.35213"/>
      <g id="copper0" >
       <circle fill="none" id="connector0pad" stroke="black" stroke-width="0.72"  cx="8.79194" cy="17.5794" connectorname="1" r="1.35213"/>
       <circle fill="none" id="connector1pad" stroke="black" stroke-width="0.72"  cx="14.4612" cy="17.5794" connectorname="2" r="1.35213"/>
       <circle fill="none" id="connector2pad" stroke="black" stroke-width="0.72"  cx="20.1305" cy="17.5794" connectorname="3" r="1.35213"/>
       <circle fill="none" id="connector3pad" stroke="black" stroke-width="0.72"  cx="25.7998" cy="17.5794" connectorname="4" r="1.35213"/>
      </g>
     </g>
    </g>
   </g>
  </g>
  <g partID="854659640">
   <line x2="74.1455" x1="55.6115" stroke="black" y1="90.6371" stroke-width="1.728" stroke-linecap="round" y2="72.1029"/>
  </g>
  <g partID="854660080">
   <line x2="50.976" x1="12.5226" stroke="black" y1="47.5572" stroke-width="1.728" stroke-linecap="round" y2="14.688"/>
  </g>
  <g partID="854660220">
   <line x2="57.888" x1="50.976" stroke="black" y1="14.688" stroke-width="1.728" stroke-linecap="round" y2="14.688"/>
  </g>
  <g partID="854660240">
   <line x2="73.7216" x1="57.888" stroke="black" y1="14.688" stroke-width="1.728" stroke-linecap="round" y2="25.8975"/>
  </g>
  <g partID="854660920">
   <line x2="78.1894" x1="95.5373" stroke="black" y1="20.119" stroke-width="1.728" stroke-linecap="round" y2="20.119"/>
  </g>
  <g partID="854661360">
   <line x2="73.44" x1="70.4685" stroke="black" y1="126.999" stroke-width="1.728" stroke-linecap="round" y2="125.28"/>
  </g>
  <g partID="854661400">
   <line x2="73.44" x1="73.44" stroke="black" y1="125.28" stroke-width="1.728" stroke-linecap="round" y2="80.352"/>
  </g>
  <g partID="854661420">
   <line x2="74.2596" x1="73.44" stroke="black" y1="80.352" stroke-width="1.728" stroke-linecap="round" y2="79.4094"/>
  </g>
  <g partID="854661980">
   <line x2="73.3956" x1="56.1178" stroke="black" y1="27.9818" stroke-width="1.728" stroke-linecap="round" y2="33.7411"/>
  </g>
  <g partID="854662100">
   <line x2="78.0101" x1="95.6678" stroke="black" y1="26.4598" stroke-width="1.728" stroke-linecap="round" y2="33.5971"/>
  </g>
  <g partID="854662200">
   <line x2="63.072" x1="66.3984" stroke="black" y1="100.01" stroke-width="1.728" stroke-linecap="round" y2="101.088"/>
  </g>
  <g partID="854662240">
   <line x2="63.072" x1="63.072" stroke="black" y1="101.088" stroke-width="1.728" stroke-linecap="round" y2="130.464"/>
  </g>
  <g partID="854662260">
   <line x2="68.4811" x1="63.072" stroke="black" y1="130.464" stroke-width="1.728" stroke-linecap="round" y2="135.384"/>
  </g>
  <g partID="854662320">
   <line x2="76.896" x1="68.4811" stroke="black" y1="135.384" stroke-width="1.728" stroke-linecap="round" y2="132.192"/>
  </g>
  <g partID="854662340">
   <line x2="80.352" x1="76.896" stroke="black" y1="132.192" stroke-width="1.728" stroke-linecap="round" y2="88.992"/>
  </g>
  <g partID="854662420">
   <line x2="80.352" x1="80.352" stroke="black" y1="88.992" stroke-width="1.728" stroke-linecap="round" y2="66.528"/>
  </g>
  <g partID="854662440">
   <line x2="77.5695" x1="80.352" stroke="black" y1="66.528" stroke-width="1.728" stroke-linecap="round" y2="64.5964"/>
  </g>
  <g partID="854662480">
   <line x2="63.072" x1="66.3144" stroke="black" y1="120.585" stroke-width="1.728" stroke-linecap="round" y2="120.096"/>
  </g>
  <g partID="854662520">
   <line x2="63.072" x1="63.072" stroke="black" y1="120.096" stroke-width="1.728" stroke-linecap="round" y2="130.464"/>
  </g>
 </g>
</svg>
