<?xml version='1.0' encoding='UTF-8' standalone='no'?>
<!-- Created with Fritzing (http://www.fritzing.org/) -->
<svg xmlns="http://www.w3.org/2000/svg" version="1.2" y="0in" viewBox="0 0 141.732 141.732" height="1.9685in"  baseProfile="tiny" x="0in" xmlns:svg="http://www.w3.org/2000/svg" width="1.9685in">
 <g transform="matrix(-1, 0, 0, 1, 141.732, 0)">
  <g partID="57522">
   <g id="silkscreen">
    <rect fill="none" y="0.288" stroke="black" stroke-width="0.576" height="141.156" x="0.288" width="141.156"/>
   </g>
  </g>
  <g partID="57520">
   <g id="board">
    <rect fill="none" id="boardoutline" fill-opacity="0.5" y="0.288" stroke="black" stroke-width="0.5" height="141.156" x="0.288" width="141.156"/>
   </g>
  </g>
  <g partID="57522">
   <g id="silkscreen">
    <rect fill="none" y="0.288" stroke="black" stroke-width="0.576" height="141.156" x="0.288" width="141.156"/>
   </g>
  </g>
  <g partID="58102">
   <g transform="translate(7.32938,9.31899)">
    <g id="silkscreen">
     <path fill="none" stroke="black" stroke-width="0.576" d="M0.288,122.136l49.824,0L50.112,0.288L0.288,0.288L0.288,122.136"/>
     <g>
      <title>element:J1</title>
      <g>
       <title>package:HEAD15-NOSS</title>
      </g>
     </g>
     <g>
      <title>element:J2</title>
      <g>
       <title>package:HEAD15-NOSS-1</title>
      </g>
     </g>
     <g>
      <title>element:U2</title>
      <g>
       <title>package:SSOP28</title>
      </g>
     </g>
     <g>
      <title>element:U3</title>
      <g>
       <title>package:SOT223</title>
      </g>
     </g>
    </g>
   </g>
  </g>
  <g partID="58122">
   <g transform="translate(62.7004,9.38497)">
    <g id="silkscreen">
     <line fill="none" x2="0.132" id="_103312832_1_" x1="0.132" stroke="black" y1="0.132" stroke-width="0.999999" y2="42.936"/>
     <line fill="none" x2="21.958" id="_103312760_1_" x1="0.132" stroke="black" y1="42.936" stroke-width="0.999999" y2="42.936"/>
     <line fill="none" x2="21.958" id="_103311800_1_" x1="21.958" stroke="black" y1="42.936" stroke-width="0.999999" y2="0.132"/>
     <line fill="none" x2="8.31599" id="_103311824_1_" x1="0.132" stroke="black" y1="0.132" stroke-width="0.999999" y2="0.132"/>
     <line fill="none" x2="21.958" id="_103311968_1_" x1="13.771" stroke="black" y1="0.132" stroke-width="0.999999" y2="0.132"/>
    </g>
   </g>
  </g>
  <g partID="854630742">
   <g transform="translate(122.529,56.839)">
    <g transform="matrix(0,1,-1,0,0,0)">
     <g id="silkscreen" gorn="0.1">
      <path fill="none" stroke="black" stroke-width="0.576" d="M7.344,53.712A6.912,6.912,0,0,1,0.288,46.5888L0.288,7.41118A6.912,6.912,0,0,1,7.344,0.288L21.456,0.288A6.912,6.912,0,0,1,28.512,7.41118L28.512,46.5888A6.912,6.912,0,0,1,21.456,53.712L7.344,53.712"/>
      <g>
       <title>element:JP2</title>
       <g>
        <title>package:1X03-CLEANBIG</title>
       </g>
      </g>
      <g>
       <title>element:U$6</title>
       <g>
        <title>package:MOUNTINGHOLE_2.5_PLATED</title>
        <circle fill="none" stroke="black" stroke-width="0.576" cx="14.4" cy="9" r="5.66929"/>
       </g>
      </g>
      <g>
       <title>element:U1</title>
       <g>
        <title>package:SOT23-5</title>
        <line x2="16.6677" x1="12.1323" stroke="black" y1="35.6372" stroke-width="0.576" y2="35.6372" stroke-linecap="round"/>
        <line x2="16.6677" x1="12.1323" stroke="black" y1="26.2828" stroke-width="0.576" y2="26.2828" stroke-linecap="round"/>
        <line x2="11.4236" x1="11.4236" stroke="black" y1="32.0939" stroke-width="0.576" y2="29.8261" stroke-linecap="round"/>
       </g>
      </g>
      <g>
       <title>element:U2</title>
       <g>
        <title>package:GUVA-S12SD</title>
        <line x2="9.15588" x1="9.15588" stroke="black" y1="24.4233" stroke-width="0.36" y2="25.132" stroke-linecap="round"/>
        <line x2="19.6441" x1="9.15588" stroke="black" y1="25.132" stroke-width="0.36" y2="25.132" stroke-linecap="round"/>
        <line x2="19.6441" x1="19.6441" stroke="black" y1="25.132" stroke-width="0.36" y2="24.565" stroke-linecap="round"/>
        <line x2="9.15588" x1="9.15588" stroke="black" y1="17.195" stroke-width="0.36" y2="16.628" stroke-linecap="round"/>
        <line x2="19.6441" x1="9.15588" stroke="black" y1="16.628" stroke-width="0.36" y2="16.628" stroke-linecap="round"/>
        <line x2="19.6441" x1="19.6441" stroke="black" y1="16.628" stroke-width="0.36" y2="17.195" stroke-linecap="round"/>
        <g>
         <title>polygon</title>
         <path fill="none" stroke="black" stroke-width="0.432" stroke-linecap="round" d="M13.68,20.88L15.6869,19.2331L15.6869,22.5269L13.68,20.88M15.264,22.1799L15.264,19.5801L15.264,22.1799M14.832,21.8254L14.832,19.9346L14.832,21.8254M14.4,21.4708L14.4,20.2892L14.4,21.4708"/>
        </g>
       </g>
      </g>
     </g>
    </g>
   </g>
  </g>
  <g partID="854636612">
   <g transform="translate(129.845,135.32)">
    <g transform="matrix(-1,0,0,-1,0,0)">
     <g transform="matrix(1, 0, 0, 1, 42.413, 0.978001)">
      <g id="silkscreen">
       <g gorn="0.1.0.0.0.1">
        <path fill="none" stroke="black" stroke-width="0.576" d="M-42.125,42.702l66.457,0L24.406,-0.69l-66.531,0L-42.125,42.702"/>
        <g>
         <title>element:SL1</title>
         <g>
          <title>package:1X06</title>
          <line x2="22.502" fill="none" x1="22.502" y1="26.021" stroke="black" stroke-width="0.576" stroke-linecap="round" y2="29.621"/>
          <line x2="20.703" fill="none" x1="22.502" y1="29.621" stroke="black" stroke-width="0.576" stroke-linecap="round" y2="31.422"/>
          <line x2="15.302" fill="none" x1="17.103" y1="31.422" stroke="black" stroke-width="0.576" stroke-linecap="round" y2="29.621"/>
          <line x2="22.502" fill="none" x1="20.703" y1="31.422" stroke="black" stroke-width="0.576" stroke-linecap="round" y2="33.22"/>
          <line x2="22.502" fill="none" x1="22.502" y1="33.22" stroke="black" stroke-width="0.576" stroke-linecap="round" y2="36.82"/>
          <line x2="20.703" fill="none" x1="22.502" y1="36.82" stroke="black" stroke-width="0.576" stroke-linecap="round" y2="38.621"/>
          <line x2="15.302" fill="none" x1="17.103" y1="38.621" stroke="black" stroke-width="0.576" stroke-linecap="round" y2="36.82"/>
          <line x2="15.302" fill="none" x1="15.302" y1="36.82" stroke="black" stroke-width="0.576" stroke-linecap="round" y2="33.22"/>
          <line x2="17.103" fill="none" x1="15.302" y1="33.22" stroke="black" stroke-width="0.576" stroke-linecap="round" y2="31.422"/>
          <line x2="22.502" fill="none" x1="20.703" y1="17.021" stroke="black" stroke-width="0.576" stroke-linecap="round" y2="18.821"/>
          <line x2="22.502" fill="none" x1="22.502" y1="18.821" stroke="black" stroke-width="0.576" stroke-linecap="round" y2="22.421"/>
          <line x2="20.703" fill="none" x1="22.502" y1="22.421" stroke="black" stroke-width="0.576" stroke-linecap="round" y2="24.22"/>
          <line x2="15.302" fill="none" x1="17.103" y1="24.22" stroke="black" stroke-width="0.576" stroke-linecap="round" y2="22.421"/>
          <line x2="15.302" fill="none" x1="15.302" y1="22.421" stroke="black" stroke-width="0.576" stroke-linecap="round" y2="18.821"/>
          <line x2="17.103" fill="none" x1="15.302" y1="18.821" stroke="black" stroke-width="0.576" stroke-linecap="round" y2="17.021"/>
          <line x2="20.703" fill="none" x1="22.502" y1="26.021" stroke="black" stroke-width="0.576" stroke-linecap="round" y2="24.22"/>
          <line x2="15.302" fill="none" x1="17.103" y1="24.22" stroke="black" stroke-width="0.576" stroke-linecap="round" y2="26.021"/>
          <line x2="15.302" fill="none" x1="15.302" y1="29.621" stroke="black" stroke-width="0.576" stroke-linecap="round" y2="26.021"/>
          <line x2="22.502" fill="none" x1="22.502" y1="4.421" stroke="black" stroke-width="0.576" stroke-linecap="round" y2="8.021"/>
          <line x2="20.703" fill="none" x1="22.502" y1="8.021" stroke="black" stroke-width="0.576" stroke-linecap="round" y2="9.82101"/>
          <line x2="15.302" fill="none" x1="17.103" y1="9.82101" stroke="black" stroke-width="0.576" stroke-linecap="round" y2="8.021"/>
          <line x2="22.502" fill="none" x1="20.703" y1="9.82101" stroke="black" stroke-width="0.576" stroke-linecap="round" y2="11.621"/>
          <line x2="22.502" fill="none" x1="22.502" y1="11.621" stroke="black" stroke-width="0.576" stroke-linecap="round" y2="15.221"/>
          <line x2="20.703" fill="none" x1="22.502" y1="15.221" stroke="black" stroke-width="0.576" stroke-linecap="round" y2="17.021"/>
          <line x2="15.302" fill="none" x1="17.103" y1="17.021" stroke="black" stroke-width="0.576" stroke-linecap="round" y2="15.221"/>
          <line x2="15.302" fill="none" x1="15.302" y1="15.221" stroke="black" stroke-width="0.576" stroke-linecap="round" y2="11.621"/>
          <line x2="17.103" fill="none" x1="15.302" y1="11.621" stroke="black" stroke-width="0.576" stroke-linecap="round" y2="9.82101"/>
          <line x2="17.103" fill="none" x1="20.703" y1="2.621" stroke="black" stroke-width="0.576" stroke-linecap="round" y2="2.621"/>
          <line x2="20.703" fill="none" x1="22.502" y1="4.421" stroke="black" stroke-width="0.576" stroke-linecap="round" y2="2.621"/>
          <line x2="15.302" fill="none" x1="17.103" y1="2.621" stroke="black" stroke-width="0.576" stroke-linecap="round" y2="4.421"/>
          <line x2="15.302" fill="none" x1="15.302" y1="8.021" stroke="black" stroke-width="0.576" stroke-linecap="round" y2="4.421"/>
          <line x2="17.103" fill="none" x1="20.703" y1="38.621" stroke="black" stroke-width="0.576" stroke-linecap="round" y2="38.621"/>
         </g>
        </g>
        <g>
         <title>element:U$2</title>
         <g>
          <title>package:SFE-NEW-WEBLOGO</title>
         </g>
        </g>
        <rect fill="none" y="20.622" stroke="black" stroke-width="0.576" height="14.399" stroke-linecap="round" x="-20.545" width="17.083"/>
       </g>
      </g>
     </g>
    </g>
   </g>
  </g>
  <g partID="854645032">
   <g transform="translate(114.909,11.327)">
    <g transform="matrix(0,1,-1,0,0,0)">
     <g id="silkscreen">
      <line x2="2.55572" class="other" x1="4.53997" y1="17.5794" stroke="black" stroke-width="0.576" y2="17.5794" stroke-linecap="round"/>
      <line x2="2.55572" class="other" x1="2.55572" y1="17.5794" stroke="black" stroke-width="0.576" y2="21.2644" stroke-linecap="round"/>
      <line x2="0.288" class="other" x1="2.55572" y1="21.2644" stroke="black" stroke-width="0.576" y2="21.2644" stroke-linecap="round"/>
      <line x2="0.288" class="other" x1="0.288" y1="21.2644" stroke="black" stroke-width="0.576" y2="0.288" stroke-linecap="round"/>
      <line x2="34.3038" class="other" x1="0.288" y1="0.288" stroke="black" stroke-width="0.576" y2="0.288" stroke-linecap="round"/>
      <line x2="34.3038" class="other" x1="34.3038" y1="0.288" stroke="black" stroke-width="0.576" y2="21.2644" stroke-linecap="round"/>
      <line x2="32.036" class="other" x1="34.3038" y1="21.2644" stroke="black" stroke-width="0.576" y2="21.2644" stroke-linecap="round"/>
      <line x2="32.036" class="other" x1="32.036" y1="21.2644" stroke="black" stroke-width="0.576" y2="17.5794" stroke-linecap="round"/>
      <line x2="30.0518" class="other" x1="32.036" y1="17.5794" stroke="black" stroke-width="0.576" y2="17.5794" stroke-linecap="round"/>
     </g>
    </g>
   </g>
  </g>
  <g partID="854647340">
   <g transform="translate(117.264,56.8145)">
    <g transform="matrix(0,-1,1,0,0,0)">
     <g id="silkscreen">
      <text fill="black" id="label" text-anchor="middle" y="2.91198" xmlns:xml="http://www.w3.org/XML/1998/namespace" stroke-width="0" x="27.5021" font-size="3.23554" font-family="OCRA" xml:space="preserve">Water Fall sensor</text>
     </g>
    </g>
   </g>
  </g>
  <g id="partLabel" partID="58100">
   <g transform="translate(26.2052,3.40375)">
    <g fill="#000000" id="silkscreenLabel" fill-opacity="1" font-style="normal" stroke="none" font-weight="normal" font-size="5" font-family="'OCRA'">
     <text y="3.75" x="0">MCU</text>
    </g>
   </g>
  </g>
  <g id="partLabel" partID="58120">
   <g transform="translate(73.0907,2.83924)">
    <g fill="#000000" id="silkscreenLabel" fill-opacity="1" font-style="normal" stroke="none" font-weight="normal" font-size="5" font-family="'OCRA'">
     <text y="3.75" x="0">DHT22</text>
    </g>
   </g>
  </g>
  <g id="partLabel" partID="854630740">
   <g transform="translate(124.439,88.9579)">
    <g transform="matrix(0,-1,1,0,0,0)">
     <g fill="#000000" id="silkscreenLabel" fill-opacity="1" font-style="normal" stroke="none" font-weight="normal" font-size="5" font-family="'OCRA'">
      <text y="3.75" x="0">UV sensor</text>
     </g>
    </g>
   </g>
  </g>
  <g id="partLabel" partID="854636610">
   <g transform="translate(131.664,134.801)">
    <g transform="matrix(-2.22045e-16,-1,1,-2.22045e-16,0,0)">
     <g fill="#000000" id="silkscreenLabel" fill-opacity="1" font-style="normal" stroke="none" font-weight="normal" font-size="5" font-family="'OCRA'">
      <text y="3.75" x="0">Light sensor</text>
     </g>
    </g>
   </g>
  </g>
  <g id="partLabel" partID="854645030">
   <g transform="translate(99.1957,3.23342)">
    <g fill="#000000" id="silkscreenLabel" fill-opacity="1" font-style="normal" stroke="none" font-weight="normal" font-size="5" font-family="'OCRA'">
     <text y="3.75" x="0">JP1</text>
    </g>
   </g>
  </g>
  <g partID="58101">
   <g transform="translate(7.32938,9.31899)">
    <g id="copper1">
     <g id="copper0">
      <circle fill="white" id="connector16pad" stroke="white" stroke-width="1.944" cx="3.6" cy="10.8" r="1.908"/>
      <rect fill="white" y="8.892" stroke="white" stroke-width="1.944" height="3.816" x="1.692" width="3.814"/>
      <circle fill="white" id="connector17pad" stroke="white" stroke-width="1.944" cx="3.6" cy="18" r="1.908"/>
      <circle fill="white" id="connector18pad" stroke="white" stroke-width="1.944" cx="3.6" cy="25.2" r="1.908"/>
      <circle fill="white" id="connector19pad" stroke="white" stroke-width="1.944" cx="3.6" cy="32.4" r="1.908"/>
      <circle fill="white" id="connector20pad" stroke="white" stroke-width="1.944" cx="3.6" cy="39.6" r="1.908"/>
      <circle fill="white" id="connector21pad" stroke="white" stroke-width="1.944" cx="3.6" cy="46.8" r="1.908"/>
      <circle fill="white" id="connector22pad" stroke="white" stroke-width="1.944" cx="3.6" cy="54" r="1.908"/>
      <circle fill="white" id="connector23pad" stroke="white" stroke-width="1.944" cx="3.6" cy="61.2" r="1.908"/>
      <circle fill="white" id="connector24pad" stroke="white" stroke-width="1.944" cx="3.6" cy="68.4" r="1.908"/>
      <circle fill="white" id="connector25pad" stroke="white" stroke-width="1.944" cx="3.6" cy="75.6" r="1.908"/>
      <circle fill="white" id="connector26pad" stroke="white" stroke-width="1.944" cx="3.6" cy="82.8" r="1.908"/>
      <circle fill="white" id="connector27pad" stroke="white" stroke-width="1.944" cx="3.6" cy="90" r="1.908"/>
      <circle fill="white" id="connector28pad" stroke="white" stroke-width="1.944" cx="3.6" cy="97.2" r="1.908"/>
      <circle fill="white" id="connector29pad" stroke="white" stroke-width="1.944" cx="3.6" cy="104.4" r="1.908"/>
      <circle fill="white" id="connector30pad" stroke="white" stroke-width="1.944" cx="3.6" cy="111.6" r="1.908"/>
      <circle fill="white" id="connector31pad" stroke="white" stroke-width="1.944" cx="46.8" cy="10.8" r="1.908"/>
      <circle fill="white" id="connector32pad" stroke="white" stroke-width="1.944" cx="46.8" cy="18" r="1.908"/>
      <circle fill="white" id="connector33pad" stroke="white" stroke-width="1.944" cx="46.8" cy="25.2" r="1.908"/>
      <circle fill="white" id="connector34pad" stroke="white" stroke-width="1.944" cx="46.8" cy="32.4" r="1.908"/>
      <circle fill="white" id="connector35pad" stroke="white" stroke-width="1.944" cx="46.8" cy="39.6" r="1.908"/>
      <circle fill="white" id="connector36pad" stroke="white" stroke-width="1.944" cx="46.8" cy="46.8" r="1.908"/>
      <circle fill="white" id="connector37pad" stroke="white" stroke-width="1.944" cx="46.8" cy="54" r="1.908"/>
      <circle fill="white" id="connector38pad" stroke="white" stroke-width="1.944" cx="46.8" cy="61.2" r="1.908"/>
      <circle fill="white" id="connector39pad" stroke="white" stroke-width="1.944" cx="46.8" cy="68.4" r="1.908"/>
      <circle fill="white" id="connector40pad" stroke="white" stroke-width="1.944" cx="46.8" cy="75.6" r="1.908"/>
      <circle fill="white" id="connector41pad" stroke="white" stroke-width="1.944" cx="46.8" cy="82.8" r="1.908"/>
      <circle fill="white" id="connector42pad" stroke="white" stroke-width="1.944" cx="46.8" cy="90" r="1.908"/>
      <circle fill="white" id="connector43pad" stroke="white" stroke-width="1.944" cx="46.8" cy="97.2" r="1.908"/>
      <circle fill="white" id="connector44pad" stroke="white" stroke-width="1.944" cx="46.8" cy="104.4" r="1.908"/>
      <circle fill="white" id="connector45pad" stroke="white" stroke-width="1.944" cx="46.8" cy="111.6" r="1.908"/>
     </g>
    </g>
   </g>
  </g>
  <g partID="58121">
   <g transform="translate(62.7004,9.38497)">
    <g id="copper1">
     <circle fill="white" id="connector11pad" stroke="white" stroke-width="1.72" cx="13.029" cy="32.333" r="2.16"/>
     <circle fill="white" id="connector10pad" stroke="white" stroke-width="1.72" cx="13.029" cy="25.134" r="2.16"/>
     <circle fill="white" id="connector9pad" stroke="white" stroke-width="1.72" cx="13.029" cy="17.934" r="2.16"/>
     <circle fill="white" id="connector8pad" stroke="white" stroke-width="1.72" cx="13.029" cy="10.734" r="2.16"/>
    </g>
   </g>
  </g>
  <g partID="854630741">
   <g transform="translate(122.529,56.839)">
    <g transform="matrix(0,1,-1,0,0,0)">
     <g id="copper1" gorn="0.2">
      <g id="copper0" gorn="0.2.0">
       <circle fill="white" id="connector15pad" stroke="white" stroke-width="2.16" cx="14.4" gorn="0.2.0.0" cy="9" r="4.26331" connectorname="P$1"/>
       <circle fill="white" id="connector6pad" stroke="white" stroke-width="2.16" cx="20.88" gorn="0.2.0.1" cy="46.8" r="2.16" connectorname="5.0V"/>
       <circle fill="white" id="connector7pad" stroke="white" stroke-width="2.16" cx="13.68" gorn="0.2.0.2" cy="46.8" r="2.16" connectorname="AOUT"/>
       <circle fill="white" id="connector8pad" stroke="white" stroke-width="2.16" cx="6.48" gorn="0.2.0.3" cy="46.8" r="2.16" connectorname="GND"/>
      </g>
     </g>
    </g>
   </g>
  </g>
  <g partID="854636611">
   <g transform="translate(129.845,135.32)">
    <g transform="matrix(-1,0,0,-1,0,0)">
     <g transform="matrix(1, 0, 0, 1, 42.413, 0.978001)">
      <g id="copper1">
       <g gorn="0.1.0.0.0.2">
        <g id="copper0" gorn="0.1.0.0.0.2.0">
         <circle fill="white" id="connector8pad" stroke="white" stroke-width="1.944" cx="18.903" gorn="0.1.0.0.0.2.0.0" cy="6.222" r="2.052"/>
         <circle fill="white" id="connector9pad" stroke="white" stroke-width="1.944" cx="18.903" gorn="0.1.0.0.0.2.0.1" cy="13.423" r="2.052"/>
         <circle fill="white" id="connector10pad" stroke="white" stroke-width="1.944" cx="18.903" gorn="0.1.0.0.0.2.0.2" cy="20.622" r="2.052"/>
         <circle fill="white" id="connector12pad" stroke="white" stroke-width="1.944" cx="18.903" gorn="0.1.0.0.0.2.0.3" cy="27.823" r="2.052"/>
         <circle fill="white" id="connector13pad" stroke="white" stroke-width="1.944" cx="18.903" gorn="0.1.0.0.0.2.0.4" cy="35.022" r="2.052"/>
        </g>
       </g>
      </g>
     </g>
    </g>
   </g>
  </g>
  <g partID="854645031">
   <g transform="translate(114.909,11.327)">
    <g transform="matrix(0,1,-1,0,0,0)">
     <g id="copper1">
      <circle fill="white" id="connector0pad" stroke="white" stroke-width="1.44" cx="8.79194" cy="17.5794" connectorname="1" r="1.35213"/>
      <circle fill="white" id="connector1pad" stroke="white" stroke-width="1.44" cx="14.4612" cy="17.5794" connectorname="2" r="1.35213"/>
      <circle fill="white" id="connector2pad" stroke="white" stroke-width="1.44" cx="20.1305" cy="17.5794" connectorname="3" r="1.35213"/>
      <circle fill="white" id="connector3pad" stroke="white" stroke-width="1.44" cx="25.7998" cy="17.5794" connectorname="4" r="1.35213"/>
      <g id="copper0">
       <circle fill="white" id="connector0pad" stroke="white" stroke-width="1.44" cx="8.79194" cy="17.5794" connectorname="1" r="1.35213"/>
       <circle fill="white" id="connector1pad" stroke="white" stroke-width="1.44" cx="14.4612" cy="17.5794" connectorname="2" r="1.35213"/>
       <circle fill="white" id="connector2pad" stroke="white" stroke-width="1.44" cx="20.1305" cy="17.5794" connectorname="3" r="1.35213"/>
       <circle fill="white" id="connector3pad" stroke="white" stroke-width="1.44" cx="25.7998" cy="17.5794" connectorname="4" r="1.35213"/>
      </g>
     </g>
    </g>
   </g>
  </g>
 </g>
</svg>
