<?xml version='1.0' encoding='UTF-8' standalone='no'?>
<!-- Created with Fritzing (http://www.fritzing.org/) -->
<svg xmlns="http://www.w3.org/2000/svg" version="1.2" y="0in" viewBox="0 0 141.732 141.732" height="1.9685in"  baseProfile="tiny" x="0in" xmlns:svg="http://www.w3.org/2000/svg" width="1.9685in">
 <g partID="57520">
  <g id="board" >
   <rect fill="none" id="boardoutline" fill-opacity="0.5" y="0.288" stroke="black" stroke-width="0.5" height="141.156"  x="0.288" width="141.156"/>
  </g>
 </g>
 <g partID="58100">
  <g transform="translate(7.32938,9.31899)">
   <g id="copper0" >
    <circle fill="black" id="connector16pad" stroke="black" stroke-width="1.944"  cx="3.6" cy="10.8" r="1.908"/>
    <rect fill="black" y="8.892" stroke="black" stroke-width="1.944" height="3.816"  x="1.692" width="3.814"/>
    <circle fill="black" id="connector17pad" stroke="black" stroke-width="1.944"  cx="3.6" cy="18" r="1.908"/>
    <circle fill="black" id="connector18pad" stroke="black" stroke-width="1.944"  cx="3.6" cy="25.2" r="1.908"/>
    <circle fill="black" id="connector19pad" stroke="black" stroke-width="1.944"  cx="3.6" cy="32.4" r="1.908"/>
    <circle fill="black" id="connector20pad" stroke="black" stroke-width="1.944"  cx="3.6" cy="39.6" r="1.908"/>
    <circle fill="black" id="connector21pad" stroke="black" stroke-width="1.944"  cx="3.6" cy="46.8" r="1.908"/>
    <circle fill="black" id="connector22pad" stroke="black" stroke-width="1.944"  cx="3.6" cy="54" r="1.908"/>
    <circle fill="black" id="connector23pad" stroke="black" stroke-width="1.944"  cx="3.6" cy="61.2" r="1.908"/>
    <circle fill="black" id="connector24pad" stroke="black" stroke-width="1.944"  cx="3.6" cy="68.4" r="1.908"/>
    <circle fill="black" id="connector25pad" stroke="black" stroke-width="1.944"  cx="3.6" cy="75.6" r="1.908"/>
    <circle fill="black" id="connector26pad" stroke="black" stroke-width="1.944"  cx="3.6" cy="82.8" r="1.908"/>
    <circle fill="black" id="connector27pad" stroke="black" stroke-width="1.944"  cx="3.6" cy="90" r="1.908"/>
    <circle fill="black" id="connector28pad" stroke="black" stroke-width="1.944"  cx="3.6" cy="97.2" r="1.908"/>
    <circle fill="black" id="connector29pad" stroke="black" stroke-width="1.944"  cx="3.6" cy="104.4" r="1.908"/>
    <circle fill="black" id="connector30pad" stroke="black" stroke-width="1.944"  cx="3.6" cy="111.6" r="1.908"/>
    <circle fill="black" id="connector31pad" stroke="black" stroke-width="1.944"  cx="46.8" cy="10.8" r="1.908"/>
    <circle fill="black" id="connector32pad" stroke="black" stroke-width="1.944"  cx="46.8" cy="18" r="1.908"/>
    <circle fill="black" id="connector33pad" stroke="black" stroke-width="1.944"  cx="46.8" cy="25.2" r="1.908"/>
    <circle fill="black" id="connector34pad" stroke="black" stroke-width="1.944"  cx="46.8" cy="32.4" r="1.908"/>
    <circle fill="black" id="connector35pad" stroke="black" stroke-width="1.944"  cx="46.8" cy="39.6" r="1.908"/>
    <circle fill="black" id="connector36pad" stroke="black" stroke-width="1.944"  cx="46.8" cy="46.8" r="1.908"/>
    <circle fill="black" id="connector37pad" stroke="black" stroke-width="1.944"  cx="46.8" cy="54" r="1.908"/>
    <circle fill="black" id="connector38pad" stroke="black" stroke-width="1.944"  cx="46.8" cy="61.2" r="1.908"/>
    <circle fill="black" id="connector39pad" stroke="black" stroke-width="1.944"  cx="46.8" cy="68.4" r="1.908"/>
    <circle fill="black" id="connector40pad" stroke="black" stroke-width="1.944"  cx="46.8" cy="75.6" r="1.908"/>
    <circle fill="black" id="connector41pad" stroke="black" stroke-width="1.944"  cx="46.8" cy="82.8" r="1.908"/>
    <circle fill="black" id="connector42pad" stroke="black" stroke-width="1.944"  cx="46.8" cy="90" r="1.908"/>
    <circle fill="black" id="connector43pad" stroke="black" stroke-width="1.944"  cx="46.8" cy="97.2" r="1.908"/>
    <circle fill="black" id="connector44pad" stroke="black" stroke-width="1.944"  cx="46.8" cy="104.4" r="1.908"/>
    <circle fill="black" id="connector45pad" stroke="black" stroke-width="1.944"  cx="46.8" cy="111.6" r="1.908"/>
   </g>
  </g>
 </g>
 <g partID="58120">
  <g transform="translate(62.7004,9.38497)">
   <g id="copper0" >
    <g id="copper1" >
     <circle fill="black" id="connector11pad" stroke="black" stroke-width="1.72"  cx="13.029" cy="32.333" r="2.16"/>
     <circle fill="black" id="connector10pad" stroke="black" stroke-width="1.72"  cx="13.029" cy="25.134" r="2.16"/>
     <circle fill="black" id="connector9pad" stroke="black" stroke-width="1.72"  cx="13.029" cy="17.934" r="2.16"/>
     <circle fill="black" id="connector8pad" stroke="black" stroke-width="1.72"  cx="13.029" cy="10.734" r="2.16"/>
    </g>
   </g>
  </g>
 </g>
 <g partID="854630740">
  <g transform="translate(122.529,56.839)">
   <g transform="matrix(0,1,-1,0,0,0)">
    <g id="copper0"  gorn="0.2.0">
     <circle fill="black" id="connector15pad" stroke="black" stroke-width="2.16"  cx="14.4" gorn="0.2.0.0" cy="9" r="4.26331" connectorname="P$1"/>
     <circle fill="black" id="connector6pad" stroke="black" stroke-width="2.16"  cx="20.88" gorn="0.2.0.1" cy="46.8" r="2.16" connectorname="5.0V"/>
     <circle fill="black" id="connector7pad" stroke="black" stroke-width="2.16"  cx="13.68" gorn="0.2.0.2" cy="46.8" r="2.16" connectorname="AOUT"/>
     <circle fill="black" id="connector8pad" stroke="black" stroke-width="2.16"  cx="6.48" gorn="0.2.0.3" cy="46.8" r="2.16" connectorname="GND"/>
    </g>
   </g>
  </g>
 </g>
 <g partID="854636610">
  <g transform="translate(129.845,135.32)">
   <g transform="matrix(-1,0,0,-1,0,0)">
    <g transform="matrix(1, 0, 0, 1, 42.413, 0.978001)">
     <g id="copper0">
      <g gorn="0.1.0.0.0.2.0">
       <circle fill="black" id="connector8pad" stroke="black" stroke-width="1.944" cx="18.903" gorn="0.1.0.0.0.2.0.0" cy="6.222" r="2.052"/>
       <circle fill="black" id="connector9pad" stroke="black" stroke-width="1.944" cx="18.903" gorn="0.1.0.0.0.2.0.1" cy="13.423" r="2.052"/>
       <circle fill="black" id="connector10pad" stroke="black" stroke-width="1.944" cx="18.903" gorn="0.1.0.0.0.2.0.2" cy="20.622" r="2.052"/>
       <circle fill="black" id="connector12pad" stroke="black" stroke-width="1.944" cx="18.903" gorn="0.1.0.0.0.2.0.3" cy="27.823" r="2.052"/>
       <circle fill="black" id="connector13pad" stroke="black" stroke-width="1.944" cx="18.903" gorn="0.1.0.0.0.2.0.4" cy="35.022" r="2.052"/>
      </g>
     </g>
    </g>
   </g>
  </g>
 </g>
 <g partID="854645030">
  <g transform="translate(114.909,11.327)">
   <g transform="matrix(0,1,-1,0,0,0)">
    <g id="copper0" >
     <circle fill="black" id="connector0pad" stroke="black" stroke-width="1.44"  cx="8.79194" cy="17.5794" connectorname="1" r="1.35213"/>
     <circle fill="black" id="connector1pad" stroke="black" stroke-width="1.44"  cx="14.4612" cy="17.5794" connectorname="2" r="1.35213"/>
     <circle fill="black" id="connector2pad" stroke="black" stroke-width="1.44"  cx="20.1305" cy="17.5794" connectorname="3" r="1.35213"/>
     <circle fill="black" id="connector3pad" stroke="black" stroke-width="1.44"  cx="25.7998" cy="17.5794" connectorname="4" r="1.35213"/>
    </g>
   </g>
  </g>
 </g>
</svg>
