<?xml version='1.0' encoding='UTF-8' standalone='no'?>
<!-- Created with Fritzing (http://www.fritzing.org/) -->
<svg xmlns="http://www.w3.org/2000/svg" version="1.2" y="0in" viewBox="0 0 141.732 141.732" height="1.9685in"  baseProfile="tiny" x="0in" xmlns:svg="http://www.w3.org/2000/svg" width="1.9685in">
 <g transform="matrix(-1, 0, 0, 1, 141.732, 0)">
  <g partID="57520">
   <g id="board" >
    <rect fill="none" id="boardoutline" fill-opacity="0.5" y="0.288" stroke="black" stroke-width="0.5" height="141.156"  x="0.288" width="141.156"/>
   </g>
  </g>
  <g partID="58100">
   <g transform="translate(7.32938,9.31899)">
    <g id="copper0" >
     <circle fill="none" id="connector16pad" stroke="black" stroke-width="1.224"  cx="3.6" cy="10.8" r="1.908"/>
     <rect fill="none" y="8.892" stroke="black" stroke-width="1.224" height="3.816"  x="1.692" width="3.814"/>
     <circle fill="none" id="connector17pad" stroke="black" stroke-width="1.224"  cx="3.6" cy="18" r="1.908"/>
     <circle fill="none" id="connector18pad" stroke="black" stroke-width="1.224"  cx="3.6" cy="25.2" r="1.908"/>
     <circle fill="none" id="connector19pad" stroke="black" stroke-width="1.224"  cx="3.6" cy="32.4" r="1.908"/>
     <circle fill="none" id="connector20pad" stroke="black" stroke-width="1.224"  cx="3.6" cy="39.6" r="1.908"/>
     <circle fill="none" id="connector21pad" stroke="black" stroke-width="1.224"  cx="3.6" cy="46.8" r="1.908"/>
     <circle fill="none" id="connector22pad" stroke="black" stroke-width="1.224"  cx="3.6" cy="54" r="1.908"/>
     <circle fill="none" id="connector23pad" stroke="black" stroke-width="1.224"  cx="3.6" cy="61.2" r="1.908"/>
     <circle fill="none" id="connector24pad" stroke="black" stroke-width="1.224"  cx="3.6" cy="68.4" r="1.908"/>
     <circle fill="none" id="connector25pad" stroke="black" stroke-width="1.224"  cx="3.6" cy="75.6" r="1.908"/>
     <circle fill="none" id="connector26pad" stroke="black" stroke-width="1.224"  cx="3.6" cy="82.8" r="1.908"/>
     <circle fill="none" id="connector27pad" stroke="black" stroke-width="1.224"  cx="3.6" cy="90" r="1.908"/>
     <circle fill="none" id="connector28pad" stroke="black" stroke-width="1.224"  cx="3.6" cy="97.2" r="1.908"/>
     <circle fill="none" id="connector29pad" stroke="black" stroke-width="1.224"  cx="3.6" cy="104.4" r="1.908"/>
     <circle fill="none" id="connector30pad" stroke="black" stroke-width="1.224"  cx="3.6" cy="111.6" r="1.908"/>
     <circle fill="none" id="connector31pad" stroke="black" stroke-width="1.224"  cx="46.8" cy="10.8" r="1.908"/>
     <circle fill="none" id="connector32pad" stroke="black" stroke-width="1.224"  cx="46.8" cy="18" r="1.908"/>
     <circle fill="none" id="connector33pad" stroke="black" stroke-width="1.224"  cx="46.8" cy="25.2" r="1.908"/>
     <circle fill="none" id="connector34pad" stroke="black" stroke-width="1.224"  cx="46.8" cy="32.4" r="1.908"/>
     <circle fill="none" id="connector35pad" stroke="black" stroke-width="1.224"  cx="46.8" cy="39.6" r="1.908"/>
     <circle fill="none" id="connector36pad" stroke="black" stroke-width="1.224"  cx="46.8" cy="46.8" r="1.908"/>
     <circle fill="none" id="connector37pad" stroke="black" stroke-width="1.224"  cx="46.8" cy="54" r="1.908"/>
     <circle fill="none" id="connector38pad" stroke="black" stroke-width="1.224"  cx="46.8" cy="61.2" r="1.908"/>
     <circle fill="none" id="connector39pad" stroke="black" stroke-width="1.224"  cx="46.8" cy="68.4" r="1.908"/>
     <circle fill="none" id="connector40pad" stroke="black" stroke-width="1.224"  cx="46.8" cy="75.6" r="1.908"/>
     <circle fill="none" id="connector41pad" stroke="black" stroke-width="1.224"  cx="46.8" cy="82.8" r="1.908"/>
     <circle fill="none" id="connector42pad" stroke="black" stroke-width="1.224"  cx="46.8" cy="90" r="1.908"/>
     <circle fill="none" id="connector43pad" stroke="black" stroke-width="1.224"  cx="46.8" cy="97.2" r="1.908"/>
     <circle fill="none" id="connector44pad" stroke="black" stroke-width="1.224"  cx="46.8" cy="104.4" r="1.908"/>
     <circle fill="none" id="connector45pad" stroke="black" stroke-width="1.224"  cx="46.8" cy="111.6" r="1.908"/>
    </g>
   </g>
  </g>
  <g partID="58120">
   <g transform="translate(62.7004,9.38497)">
    <g id="copper0" >
     <g id="copper1" >
      <circle fill="none" id="connector11pad" stroke="black" stroke-width="0.999999"  cx="13.029" cy="32.333" r="2.16"/>
      <circle fill="none" id="connector10pad" stroke="black" stroke-width="0.999999"  cx="13.029" cy="25.134" r="2.16"/>
      <circle fill="none" id="connector9pad" stroke="black" stroke-width="0.999999"  cx="13.029" cy="17.934" r="2.16"/>
      <circle fill="none" id="connector8pad" stroke="black" stroke-width="0.999999"  cx="13.029" cy="10.734" r="2.16"/>
     </g>
    </g>
   </g>
  </g>
  <g partID="854630740">
   <g transform="translate(122.529,56.839)">
    <g transform="matrix(0,1,-1,0,0,0)">
     <g id="copper0"  gorn="0.2.0">
      <circle fill="none" id="connector15pad" stroke="black" stroke-width="1.44"  cx="14.4" gorn="0.2.0.0" cy="9" r="4.26331" connectorname="P$1"/>
      <circle fill="none" id="connector6pad" stroke="black" stroke-width="1.44"  cx="20.88" gorn="0.2.0.1" cy="46.8" r="2.16" connectorname="5.0V"/>
      <circle fill="none" id="connector7pad" stroke="black" stroke-width="1.44"  cx="13.68" gorn="0.2.0.2" cy="46.8" r="2.16" connectorname="AOUT"/>
      <circle fill="none" id="connector8pad" stroke="black" stroke-width="1.44"  cx="6.48" gorn="0.2.0.3" cy="46.8" r="2.16" connectorname="GND"/>
     </g>
    </g>
   </g>
  </g>
  <g partID="854636610">
   <g transform="translate(129.845,135.32)">
    <g transform="matrix(-1,0,0,-1,0,0)">
     <g transform="matrix(1, 0, 0, 1, 42.413, 0.978001)">
      <g id="copper0">
       <g gorn="0.1.0.0.0.2.0">
        <circle fill="none" id="connector8pad" stroke="black" stroke-width="1.224" cx="18.903" gorn="0.1.0.0.0.2.0.0" cy="6.222" r="2.052"/>
        <circle fill="none" id="connector9pad" stroke="black" stroke-width="1.224" cx="18.903" gorn="0.1.0.0.0.2.0.1" cy="13.423" r="2.052"/>
        <circle fill="none" id="connector10pad" stroke="black" stroke-width="1.224" cx="18.903" gorn="0.1.0.0.0.2.0.2" cy="20.622" r="2.052"/>
        <circle fill="none" id="connector12pad" stroke="black" stroke-width="1.224" cx="18.903" gorn="0.1.0.0.0.2.0.3" cy="27.823" r="2.052"/>
        <circle fill="none" id="connector13pad" stroke="black" stroke-width="1.224" cx="18.903" gorn="0.1.0.0.0.2.0.4" cy="35.022" r="2.052"/>
       </g>
      </g>
     </g>
    </g>
   </g>
  </g>
  <g partID="854645030">
   <g transform="translate(114.909,11.327)">
    <g transform="matrix(0,1,-1,0,0,0)">
     <g id="copper0" >
      <circle fill="none" id="connector0pad" stroke="black" stroke-width="0.72"  cx="8.79194" cy="17.5794" connectorname="1" r="1.35213"/>
      <circle fill="none" id="connector1pad" stroke="black" stroke-width="0.72"  cx="14.4612" cy="17.5794" connectorname="2" r="1.35213"/>
      <circle fill="none" id="connector2pad" stroke="black" stroke-width="0.72"  cx="20.1305" cy="17.5794" connectorname="3" r="1.35213"/>
      <circle fill="none" id="connector3pad" stroke="black" stroke-width="0.72"  cx="25.7998" cy="17.5794" connectorname="4" r="1.35213"/>
     </g>
    </g>
   </g>
  </g>
  <g partID="854656110">
   <line x2="63.072" x1="55.6577" stroke="black" y1="64.7535" stroke-width="1.728" stroke-linecap="round" y2="71.712"/>
  </g>
  <g partID="854656190">
   <line x2="68.4811" x1="63.072" stroke="black" y1="71.712" stroke-width="1.728" stroke-linecap="round" y2="92.1904"/>
  </g>
  <g partID="854663240">
   <line x2="73.44" x1="75.7094" stroke="black" y1="106.471" stroke-width="1.728" stroke-linecap="round" y2="111.456"/>
  </g>
  <g partID="854656290">
   <line x2="75.7094" x1="68.4811" stroke="black" y1="92.1904" stroke-width="1.728" stroke-linecap="round" y2="92.1904"/>
  </g>
  <g partID="854659410">
   <line x2="75.7094" x1="75.7094" stroke="black" y1="92.1904" stroke-width="1.728" stroke-linecap="round" y2="106.471"/>
  </g>
  <g partID="854656310">
   <line x2="70.5636" x1="73.44" stroke="black" y1="111.456" stroke-width="1.728" stroke-linecap="round" y2="112.782"/>
  </g>
  <g partID="854659840">
   <line x2="57.888" x1="55.7844" stroke="black" y1="71.8053" stroke-width="1.728" stroke-linecap="round" y2="73.44"/>
  </g>
  <g partID="854659880">
   <line x2="63.072" x1="57.888" stroke="black" y1="73.44" stroke-width="1.728" stroke-linecap="round" y2="104.544"/>
  </g>
  <g partID="854660040">
   <line x2="66.4231" x1="63.072" stroke="black" y1="104.544" stroke-width="1.728" stroke-linecap="round" y2="105.757"/>
  </g>
  <g partID="854660360">
   <line x2="58.752" x1="55.5182" stroke="black" y1="100.889" stroke-width="1.728" stroke-linecap="round" y2="104.544"/>
  </g>
  <g partID="854660420">
   <line x2="61.2528" x1="58.752" stroke="black" y1="104.544" stroke-width="1.728" stroke-linecap="round" y2="135.384"/>
  </g>
  <g partID="854660560">
   <line x2="82.9376" x1="61.2528" stroke="black" y1="135.384" stroke-width="1.728" stroke-linecap="round" y2="135.384"/>
  </g>
  <g partID="854663200">
   <line x2="97.1888" x1="90.1659" stroke="black" y1="128.155" stroke-width="1.728" stroke-linecap="round" y2="38.9134"/>
  </g>
  <g partID="854660580">
   <line x2="90.1659" x1="82.9376" stroke="black" y1="135.384" stroke-width="1.728" stroke-linecap="round" y2="128.155"/>
  </g>
  <g partID="854660980">
   <line x2="73.9899" x1="55.6115" stroke="black" y1="40.237" stroke-width="1.728" stroke-linecap="round" y2="21.8585"/>
  </g>
  <g partID="854661140">
   <line x2="69.984" x1="73.6821" stroke="black" y1="76.81" stroke-width="1.728" stroke-linecap="round" y2="75.168"/>
  </g>
  <g partID="854661180">
   <line x2="57.024" x1="69.984" stroke="black" y1="75.168" stroke-width="1.728" stroke-linecap="round" y2="44.064"/>
  </g>
  <g partID="854661320">
   <line x2="55.758" x1="57.024" stroke="black" y1="44.064" stroke-width="1.728" stroke-linecap="round" y2="43.0384"/>
  </g>
  <g partID="854661440">
   <line x2="49.248" x1="12.6603" stroke="black" y1="105.337" stroke-width="1.728" stroke-linecap="round" y2="80.352"/>
  </g>
  <g partID="854661600">
   <line x2="49.248" x1="49.248" stroke="black" y1="80.352" stroke-width="1.728" stroke-linecap="round" y2="14.688"/>
  </g>
  <g partID="854661620">
   <line x2="78.624" x1="49.248" stroke="black" y1="14.688" stroke-width="1.728" stroke-linecap="round" y2="14.688"/>
  </g>
  <g partID="854661640">
   <line x2="95.995" x1="78.624" stroke="black" y1="14.688" stroke-width="1.728" stroke-linecap="round" y2="30.2613"/>
  </g>
  <g partID="854661760">
   <line x2="75.7294" x1="75.7294" stroke="black" y1="36.979" stroke-width="1.728" stroke-linecap="round" y2="39.258"/>
  </g>
  <g partID="854661860">
   <line x2="75.7294" x1="75.7294" stroke="black" y1="61.079" stroke-width="1.728" stroke-linecap="round" y2="44.178"/>
  </g>
 </g>
</svg>
